:SAMPLES-PER-SECOND 30
:FULLY-SPECIFIED
:DEGREES
514
root  51.1232 36.6725 -3.71072 19.526 84.5699 21.8253
RightUpLeg  -32.0593 -3.88167 -9.23266
RightLeg  59.1561 0.188548 -0.143446
RightFoot  -3.69333 -0.635211 9.09337
RightToes  -1.33073e-015 0 -3.6325e-017
Spine  40.5435 -1.99289 0.244169
Spine1  10.9848 0.115857 -6.51706
HEad  -26.0633 0.152832 12.982
LeftShoulder1  1.16122 -0.389403 -23.5486
LeftArm  -9.62514 -15.6584 -46.2087
LeftForeArm  25.8926 -40.8778 -8.00246
LeftHand  -0.157235 1.01078 4.01369
RightShoulder  0.375776 -2.03342 19.4447
RightArm  4.11211 8.11805 47.2361
RightForeArm  22.7907 64.455 22.0439
RightHand  -0.270607 1.51711 -4.73596
LeftUpLeg  -27.5899 13.0045 -4.97454
LeftLeg  27.9014 -1.9597 -0.767092
LeftFoot  1.44588 -0.561823 4.93036
LeftToes  -1.03319e-009 7.52634e-011 -3.26162e-012
515
root  51.576 36.7027 -3.60422 21.8377 84.9822 22.2883
RightUpLeg  -34.0368 -3.14182 -9.36173
RightLeg  48.6978 0.567661 0.306752
RightFoot  -3.23811 -0.687722 9.37468
RightToes  -1.33073e-015 0 -3.6325e-017
Spine  42.3436 -2.22646 0.389622
Spine1  11.2417 0.0952635 -6.3494
HEad  -30.1761 1.51722 14.1339
LeftShoulder1  1.18213 -0.507933 -23.1693
LeftArm  -11.4186 -18.548 -46.5338
LeftForeArm  26.4252 -44.1894 -9.08403
LeftHand  -0.226734 -0.0274031 4.92267
RightShoulder  0.404684 -1.86459 18.4858
RightArm  0.975503 9.18487 46.4187
RightForeArm  33.685 71.5793 32.1927
RightHand  -0.130924 -0.662983 -3.19697
LeftUpLeg  -29.2958 12.7492 -5.12005
LeftLeg  28.7547 -2.13213 -0.904428
LeftFoot  0.821093 -0.545738 5.0721
LeftToes  -1.03319e-009 7.52634e-011 -3.26162e-012
516
root  51.9936 36.6688 -3.46919 26.4154 85.9859 25.2424
RightUpLeg  -34.6564 -2.25203 -9.82891
RightLeg  38.34 2.6842 1.9781
RightFoot  -3.39914 -0.716773 9.98622
RightToes  -1.33073e-015 0 -3.6325e-017
Spine  44.5382 -2.53291 0.857516
Spine1  11.0783 -0.261933 -5.37848
HEad  -34.3915 3.12705 15.8286
LeftShoulder1  1.26319 -0.800219 -23.0572
LeftArm  -13.8327 -20.9388 -46.8428
LeftForeArm  27.7908 -48.1081 -10.4229
LeftHand  -0.206949 -0.231895 4.30673
RightShoulder  0.452352 -1.58496 17.1505
RightArm  -1.67693 10.8107 45.5078
RightForeArm  48.1301 76.3375 46.735
RightHand  -0.086858 -0.970649 -2.2174
LeftUpLeg  -31.0193 11.7483 -5.08998
LeftLeg  29.8513 -2.30119 -1.06599
LeftFoot  0.534402 -0.625286 5.97698
LeftToes  -1.03319e-009 7.52634e-011 -3.26162e-012
517
root  52.3967 36.4425 -3.21 43.4166 87.145 40.7299
RightUpLeg  -35.0843 -0.985105 -10.9835
RightLeg  30.8798 5.69986 3.46937
RightFoot  -4.01242 -0.784896 11.6993
RightToes  -1.33073e-015 0 -3.6325e-017
Spine  46.3712 -2.85153 0.92944
Spine1  11.2646 -0.654646 -4.88564
HEad  -37.892 4.94561 17.3867
LeftShoulder1  1.38147 -1.41429 -21.7459
LeftArm  -15.4199 -24.7129 -47.4014
LeftForeArm  27.6803 -49.2348 -10.9138
LeftHand  -0.283059 -0.763231 5.46402
RightShoulder  0.454897 -1.52894 16.5428
RightArm  -4.11811 14.5868 44.4239
RightForeArm  63.4472 78.6677 61.541
RightHand  -0.0810938 -2.21074 -2.47625
LeftUpLeg  -33.4279 10.7881 -5.33319
LeftLeg  32.3033 -2.7873 -1.53742
LeftFoot  -0.424265 -0.626184 6.57478
LeftToes  -1.03319e-009 7.52634e-011 -3.26162e-012
518
root  52.7595 36.1592 -2.84445 73.5779 88.0418 69.7207
RightUpLeg  -35.8235 0.316685 -11.1965
RightLeg  28.0504 7.071 3.86334
RightFoot  -2.7794 -0.845191 11.4576
RightToes  -1.33073e-015 0 -3.6325e-017
Spine  48.6923 -2.91628 1.11577
Spine1  11.0941 -0.823173 -4.2018
HEad  -41.2149 6.47282 18.7597
LeftShoulder1  1.53492 -2.35265 -19.7283
LeftArm  -17.4477 -28.683 -48.1284
LeftForeArm  27.753 -49.6487 -11.0865
LeftHand  -0.287447 -0.757695 5.54003
RightShoulder  0.471058 -1.33669 15.1514
RightArm  -6.9947 19.2214 43.8662
RightForeArm  67.3385 78.9563 64.0378
RightHand  -0.0460897 -2.97336 -1.49593
LeftUpLeg  -35.8539 10.7474 -5.2195
LeftLeg  35.2904 -3.57634 -2.33991
LeftFoot  -1.63424 -0.583593 6.97504
LeftToes  -1.03319e-009 7.52634e-011 -3.26162e-012
519
root  53.0297 36.0308 -2.54167 132.683 88.9531 128.368
RightUpLeg  -36.8962 -0.151055 -9.14283
RightLeg  30.1824 6.78549 4.01096
RightFoot  0.754271 -0.676315 6.27418
RightToes  -1.33073e-015 0 -3.6325e-017
Spine  52.1999 -3.557 3.10427
Spine1  10.8711 -1.02363 -3.293
HEad  -44.8547 8.05312 18.9704
LeftShoulder1  1.62708 -3.27488 -17.3656
LeftArm  -20.2547 -33.3766 -48.9793
LeftForeArm  27.9176 -49.0069 -10.8031
LeftHand  -0.288373 -0.703306 5.60571
RightShoulder  0.580915 -0.643719 13.4319
RightArm  -11.023 25.5665 41.0219
RightForeArm  51.1643 76.9222 49.8277
RightHand  -0.0692708 -2.38061 -2.24923
LeftUpLeg  -37.1165 10.0607 -3.61485
LeftLeg  37.3662 -4.06842 -2.95176
LeftFoot  -2.45938 -0.542918 7.17927
LeftToes  -1.03319e-009 7.52634e-011 -3.26162e-012
520
root  53.241 35.739 -2.18991 -146.248 87.4981 -151.048
RightUpLeg  -38.3522 -0.819617 -6.76612
RightLeg  32.9262 5.72467 3.74341
RightFoot  0.397307 -0.588177 5.75607
RightToes  -1.33073e-015 0 -3.6325e-017
Spine  56.3785 -4.62707 5.45604
Spine1  8.90462 -0.697454 -3.14221
HEad  -48.3084 9.40335 20.038
LeftShoulder1  1.78939 -4.4171 -15.8035
LeftArm  -23.0178 -38.8214 -48.2298
LeftForeArm  27.3576 -46.9226 -10.0054
LeftHand  -0.296705 -0.650229 5.80069
RightShoulder  0.604051 -0.16756 11.0406
RightArm  -15.6389 32.2473 38.0489
RightForeArm  32.8316 72.0516 33.9905
RightHand  -0.108808 -1.44297 -2.90663
LeftUpLeg  -39.2304 9.06453 -1.11396
LeftLeg  40.6114 -4.03416 -3.31137
LeftFoot  -3.66066 -0.47104 7.32483
LeftToes  -1.03319e-009 7.52634e-011 -3.26162e-012
